<svg xmlns="http://www.w3.org/2000/svg" viewBox="0 0 199.77 255.12"><defs><style>.cls-1{fill:#75a928;}.cls-2{fill:#bc1142;}</style></defs><g id="Capa_2" data-name="Capa 2"><g id="BASE"><path d="M54.08,0a7.19,7.19,0,0,0-4.26,1.76c-3.86-1.48-7.6-2-11,1C33.7,2.12,32,3.5,30.75,5.12,29.62,5.09,22.26,4,18.89,9c-8.48-1-11.16,5-8.12,10.57C9,22.23,7.24,24.88,11.29,30c-1.43,2.85-.54,5.93,2.83,9.67-.89,4,.86,6.82,4,9-.59,5.48,5,8.66,6.7,9.79.64,3.19,2,6.2,8.38,7.87,1.06,4.75,4.91,5.57,8.64,6.57C29.52,80.07,19,89.49,19,112.61l-1.8,3.22c-14.13,8.59-26.84,36.2-7,58.64,1.3,7,3.47,12.07,5.41,17.66,2.9,22.5,21.82,33,26.81,34.28C49.8,232,57.58,237.27,68.13,241c9.93,10.25,20.69,14.15,31.52,14.15.16,0,22.06-3.9,32-14.15,10.54-3.7,18.33-9,25.64-14.56,5-1.24,23.92-11.78,26.81-34.28,1.94-5.59,4.12-10.63,5.42-17.66,19.87-22.44,7.16-50-7-58.64l-1.81-3.22c.07-23.12-10.49-32.54-22.81-39.71,3.72-1,7.57-1.81,8.63-6.57,6.4-1.66,7.74-4.67,8.39-7.86,1.67-1.13,7.28-4.32,6.69-9.79,3.14-2.2,4.89-5,4-9,3.37-3.73,4.26-6.82,2.83-9.66,4.05-5.11,2.25-7.76.52-10.44C192,14,189.36,8,180.88,9,177.51,4,170.16,5.09,169,5.12c-1.27-1.62-3-3-8.12-2.33-3.35-3-7.09-2.52-11-1-4.59-3.61-7.62-.72-11.08.38-5.55-1.81-6.82.67-9.55,1.68-6-1.28-7.89,1.51-10.79,4.45l-3.38-.07c-9.13,5.38-13.66,16.34-15.27,22-1.61-5.64-6.13-16.59-15.26-22l-3.38.07c-2.9-2.94-4.74-5.73-10.79-4.45-2.73-1-4-3.49-9.55-1.68C58.63,1.42,56.54-.07,54.07,0"/><path class="cls-1" d="M35.9,23.67c24.22,12.49,38.3,22.59,46,31.19C78,70.69,57.36,71.42,49.82,71c1.55-.71,2.83-1.58,3.29-2.9-1.89-1.34-8.59-.14-13.28-2.77,1.8-.37,2.64-.73,3.48-2.06-4.42-1.41-9.18-2.63-12-5,1.51,0,2.92.34,4.9-1-4-2.14-8.19-3.83-11.48-7.09,2.05,0,4.26,0,4.9-.78a44.07,44.07,0,0,1-9.21-7.47c2.86.35,4.07.05,4.77-.45-2.74-2.81-6.21-5.18-7.87-8.64,2.13.74,4.08,1,5.48-.06-.93-2.1-4.92-3.34-7.22-8.25,2.24.22,4.62.49,5.09,0a24.06,24.06,0,0,0-4.57-9.09c4.8-.07,12.06,0,11.73-.38l-3-3c4.68-1.26,9.47.2,13,1.29,1.56-1.23,0-2.79-1.93-4.38a47,47,0,0,1,10.82,2.7c1.74-1.57-1.13-3.13-2.51-4.7a27.47,27.47,0,0,1,11.34,4.45c1.88-1.81.11-3.34-1.16-4.9,4.64,1.71,7,3.93,9.54,6.12.85-1.15,2.16-2,.58-4.77a24.11,24.11,0,0,1,7.6,6.64c2-1.3,1.22-3.07,1.23-4.71,3.42,2.79,5.59,5.75,8.25,8.64.53-.39,1-1.71,1.42-3.8,8.16,7.91,19.69,27.86,3,35.76C71.74,38.61,54.74,30.08,35.9,23.67h0m128.51,0c-24.21,12.49-38.29,22.59-46,31.19C122.35,70.69,143,71.42,150.5,71c-1.55-.71-2.83-1.58-3.29-2.9,1.89-1.34,8.59-.14,13.27-2.77-1.79-.37-2.63-.73-3.48-2.06,4.43-1.41,9.19-2.63,12-5-1.51,0-2.92.34-4.9-1,4-2.14,8.19-3.83,11.48-7.09-2,0-4.26,0-4.9-.78a44.07,44.07,0,0,0,9.21-7.47c-2.86.35-4.07.05-4.77-.45,2.74-2.81,6.21-5.18,7.87-8.64-2.13.74-4.08,1-5.48-.06.93-2.1,4.92-3.34,7.22-8.25-2.24.22-4.62.49-5.1,0a24.35,24.35,0,0,1,4.58-9.09c-4.79-.07-12.06,0-11.73-.38l3-3c-4.69-1.26-9.48.2-13,1.29-1.56-1.24,0-2.79,1.94-4.39a47.55,47.55,0,0,0-10.83,2.71c-1.74-1.57,1.13-3.14,2.51-4.7a27.63,27.63,0,0,0-11.34,4.44c-1.88-1.8-.11-3.33,1.16-4.89-4.64,1.71-7,3.93-9.54,6.12-.85-1.15-2.16-2-.58-4.77a24.11,24.11,0,0,0-7.6,6.64c-2-1.3-1.22-3.07-1.23-4.71-3.42,2.78-5.59,5.75-8.25,8.64-.53-.39-1-1.71-1.41-3.81-8.16,7.92-19.7,27.86-3,35.77,14.23-11.74,31.23-20.28,50.08-26.68h0"/><path class="cls-2" d="M129.49,184.9c.08,14.77-12.84,26.81-28.86,26.89S71.55,200,71.47,185.18v-.29c-.09-14.77,12.83-26.81,28.86-26.89s29.07,11.84,29.16,26.61v.28m-45.8-76.42c12,7.88,14.19,25.73,4.84,39.88S61.86,167.58,49.84,159.7,35.65,134,45,119.83s26.67-19.23,38.69-11.36m32.45-1.42c-12,7.87-14.19,25.73-4.84,39.87S138,166.15,150,158.27s14.19-25.72,4.84-39.87-26.67-19.23-38.69-11.35m-92.53,14.3c13-3.48,4.38,53.69-6.18,49-11.61-9.34-15.35-36.7,6.18-49m150-.71c-13-3.48-4.39,53.69,6.17,49,11.62-9.34,15.36-36.71-6.17-49M129.5,78.06c22.4-3.78,41,9.53,40.28,33.82-.74,9.31-48.53-32.43-40.28-33.82m-61.88-.71c-22.4-3.78-41,9.53-40.29,33.81.74,9.31,48.54-32.42,40.29-33.81m32.17-5.66c-13.37-.35-26.2,9.92-26.23,15.87,0,7.24,10.57,14.65,26.32,14.84,16.08.11,26.35-5.93,26.4-13.4.06-8.46-14.63-17.44-26.49-17.31h0m.82,148.41c11.65-.51,27.29,3.75,27.32,9.41.19,5.49-14.18,17.89-28.1,17.65-14.41.63-28.54-11.8-28.35-16.11-.22-6.31,17.54-11.24,29.13-11m-43-33.52c8.29,10,12.08,27.56,5.15,32.74-6.55,4-22.46,2.33-33.77-13.92-7.62-13.63-6.64-27.5-1.28-31.58,8-4.87,20.37,1.72,29.9,12.76h0M142,183.42c-9,10.51-14,29.69-7.43,35.87,6.27,4.8,23.08,4.13,35.5-13.1,9-11.58,6-30.9.84-36-7.65-5.92-18.63,1.65-28.91,13.25h0"/></g></g></svg>